<?xml version="1.0" standalone="no"?><!DOCTYPE svg PUBLIC "-//W3C//DTD SVG 1.1//EN" "http://www.w3.org/Graphics/SVG/1.1/DTD/svg11.dtd"><svg t="1749715309536" class="icon" viewBox="0 0 1068 1024" version="1.1" xmlns="http://www.w3.org/2000/svg" p-id="5344" xmlns:xlink="http://www.w3.org/1999/xlink" width="133.5" height="128"><path d="M858.6 222L567 479.6C462.6 404.9 451 395.4 343.7 308L0.5 582.3v120.3L343.8 445l223.3 171.9L962 290.4l98.9 107.3c4-377.6 68.7-313-304.9-313C764.2 96.8 858.6 222 858.6 222z m-68.3 298.1v423h171.6v-560l-171.6 137z m-530.5 72.4v350.3h7.8c69.8 0.9 81.1 0.6 162.1 0.3V592.5l-85.2-62.8-84.7 62.8z m272.9 350.6h171.6V587.3L535 723.3l-2.3 219.8zM0.5 792.6v150.5h171.6v-280L0.5 792.6z" p-id="5345" fill="#038ad9"></path></svg>