<?xml version="1.0" standalone="no"?><!DOCTYPE svg PUBLIC "-//W3C//DTD SVG 1.1//EN" "http://www.w3.org/Graphics/SVG/1.1/DTD/svg11.dtd"><svg t="1751438175820" class="icon" viewBox="0 0 1024 1024" version="1.1" xmlns="http://www.w3.org/2000/svg" p-id="1696" xmlns:xlink="http://www.w3.org/1999/xlink" width="128" height="128"><path d="M346.938 554.89c55.010 75.551 139.329 81.436 163.833 81.436h2.283c24.502 0 108.82-5.885 163.833-81.436 21.62-29.787 43.722-83.596 53.329-108.459 32.55-38.916 44.921-75.91 36.754-110.022-4.917-20.231-16.765-37.136-32.834-48.452 11.694-36.106 11.454-82.949-3.561-124.027-21.14-58.493-59.575-99.692-114.105-122.631-42.878-18.017-83.596-19.939-99.090-19.939h-10.81c-15.494 0-56.213 1.923-99.090 19.939-54.53 22.941-92.965 64.139-114.225 122.512-15.014 41.076-15.254 87.922-10.21 129.241-14.876 12.97-25.023 31.033-27.71 51.445-6.642 25.905 5.73 62.898 38.279 101.815 9.609 24.983 31.709 78.793 53.329 108.579zM328.561 336.53c17.774-6.725 29.787 19.939 34.112 31.829-4.926-15.254-18.497-60.656-20.658-108.579 16.095-22.461 48.045-60.055 86.119-66.18 0 0 82.156 98.25 251.152 96.33-4.803 35.792-14.052 66.301-17.898 78.432 4.325-11.89 16.335-38.434 34.112-31.829 10.811 4.082 28.947 25.582-18.737 77.83 0 0-27.265 73.868-49.364 104.377-32.669 44.921-83.477 56.092-114.105 56.092-0.24 0-0.721 0-1.201-0.121-0.48 0-0.841 0-1.201 0.121-30.628 0-81.436-11.289-114.105-56.092-22.221-30.509-49.364-104.377-49.364-104.377-47.924-52.249-29.667-73.748-18.858-77.83zM956.977 780.46c-51.887-66.422-282.622-113.383-282.622-113.383 30.628 175.481-162.389 282.259-162.389 282.259s-192.897-106.78-162.389-282.259c0 0-230.85 47.084-282.622 113.383-54.891 70.384-48.405 139.689-44.442 168.635 4.082 28.947 11.171 46.483 58.014 56.213h862.633c46.844-9.609 53.93-27.265 58.014-56.213 4.203-28.947 10.69-98.25-44.201-168.635z" fill="#038ad9" p-id="1697"></path></svg>