<?xml version="1.0" standalone="no"?><!DOCTYPE svg PUBLIC "-//W3C//DTD SVG 1.1//EN" "http://www.w3.org/Graphics/SVG/1.1/DTD/svg11.dtd"><svg t="1749716175261" class="icon" viewBox="0 0 1024 1024" version="1.1" xmlns="http://www.w3.org/2000/svg" p-id="11315" xmlns:xlink="http://www.w3.org/1999/xlink" width="128" height="128"><path d="M597.333 85.333H256c-46.933 0-85.333 38.4-85.333 85.334v682.666c0 46.934 38.4 85.334 85.333 85.334h320C533.333 891.733 512 832 512 768H256v-85.333h268.8c12.8-34.134 29.867-59.734 51.2-85.334H256V512h512c29.867 0 59.733 4.267 85.333 12.8V341.333l-256-256zM554.667 384V149.333L789.333 384H554.667z" p-id="11316" fill="#038ad9"></path><path d="M725.333 896l-115.2-128 46.934-51.2 68.266 68.267 153.6-153.6 51.2 64" p-id="11317" fill="#038ad9"></path></svg>