<?xml version="1.0" standalone="no"?><!DOCTYPE svg PUBLIC "-//W3C//DTD SVG 1.1//EN" "http://www.w3.org/Graphics/SVG/1.1/DTD/svg11.dtd"><svg t="1751505162545" class="icon" viewBox="0 0 1024 1024" version="1.1" xmlns="http://www.w3.org/2000/svg" p-id="3849" id="mx_n_1751505162547" xmlns:xlink="http://www.w3.org/1999/xlink" width="128" height="128"><path d="M0 0m192 0l640 0q192 0 192 192l0 640q0 192-192 192l-640 0q-192 0-192-192l0-640q0-192 192-192Z" fill="#588bea" opacity=".08" p-id="3850"></path><path d="M489.376 265.376a32 32 0 0 0-2.656 42.24l2.656 3.008L658.752 480H288a32 32 0 0 0-3.744 63.776L288 544h370.752l-169.376 169.376a32 32 0 0 0-2.656 42.24l2.656 3.008a32 32 0 0 0 42.24 2.656l3.008-2.656 224-224 2.336-2.624 0.224-0.256-2.56 2.88A32.256 32.256 0 0 0 768 512.64v-1.184c0-0.768-0.064-1.536-0.128-2.272L768 512a32.256 32.256 0 0 0-6.72-19.616 33.184 33.184 0 0 0-2.656-3.008l-224-224a32 32 0 0 0-45.248 0z" fill="#588bea" p-id="3851"></path></svg>